<?xml version="1.0" encoding="utf-8"?>
<!-- Generator: Adobe Illustrator 17.0.0, SVG Export Plug-In . SVG Version: 6.00 Build 0)  -->
<!DOCTYPE svg PUBLIC "-//W3C//DTD SVG 1.1//EN" "http://www.w3.org/Graphics/SVG/1.1/DTD/svg11.dtd">
<svg version="1.1" id="Layer_1" xmlns="http://www.w3.org/2000/svg" xmlns:xlink="http://www.w3.org/1999/xlink" x="0px" y="0px"
	 width="115px" height="87px" viewBox="0 0 115 87" enable-background="new 0 0 115 87" xml:space="preserve">
<g>
	<g>
		<path fill="#808080" d="M75,9c18.195,0,33,14.804,33,33c0,0.115-0.016,0.227-0.017,0.341C112.319,37.846,115,31.74,115,25
			c0-13.807-11.193-25-25-25H40c-7.875,0-14.89,3.649-19.472,9.34C21.994,9.14,23.479,9,25,9H75z"/>
	</g>
	<path fill="#808080" d="M75,17H25C11.192,17,0,28.193,0,42v45l25-20h50c13.807,0,25-11.193,25-25S88.807,17,75,17z M75,51H25
		c-1.105,0-2-0.895-2-2s0.895-2,2-2h50c1.105,0,2,0.895,2,2S76.105,51,75,51z M75,37H25c-1.105,0-2-0.895-2-2s0.895-2,2-2h50
		c1.105,0,2,0.895,2,2S76.105,37,75,37z"/>
</g>
</svg>
