<?xml version="1.0" encoding="utf-8"?>
<!-- Generator: Adobe Illustrator 17.0.0, SVG Export Plug-In . SVG Version: 6.00 Build 0)  -->
<!DOCTYPE svg PUBLIC "-//W3C//DTD SVG 1.1//EN" "http://www.w3.org/Graphics/SVG/1.1/DTD/svg11.dtd">
<svg version="1.1" id="Layer_1" xmlns="http://www.w3.org/2000/svg" xmlns:xlink="http://www.w3.org/1999/xlink" x="0px" y="0px"
	 width="100px" height="77.333px" viewBox="0 0 100 77.333" enable-background="new 0 0 100 77.333" xml:space="preserve">
<path fill="#808080" d="M75,0H25C11.192,0,0,11.193,0,25v27.333c0,13.807,11.192,25,25,25h50c13.807,0,25-11.193,25-25V25
	C100,11.193,88.807,0,75,0z M75,61.667H25c-1.105,0-2-0.895-2-2s0.895-2,2-2h50c1.105,0,2,0.895,2,2S76.105,61.667,75,61.667z
	 M75,47.667H25c-1.105,0-2-0.895-2-2s0.895-2,2-2h50c1.105,0,2,0.895,2,2S76.105,47.667,75,47.667z M75,33.667H25
	c-1.105,0-2-0.895-2-2s0.895-2,2-2h50c1.105,0,2,0.895,2,2S76.105,33.667,75,33.667z M75,19.667H25c-1.105,0-2-0.895-2-2
	s0.895-2,2-2h50c1.105,0,2,0.895,2,2S76.105,19.667,75,19.667z"/>
</svg>
